<svg width="366" height="100" viewBox="0 0 366 100" fill="none" xmlns="http://www.w3.org/2000/svg">
<path d="M165.182 49.7273C165.182 54.7424 164.242 59.0379 162.364 62.6136C160.5 66.1742 157.955 68.9015 154.727 70.7955C151.515 72.6894 147.871 73.6364 143.795 73.6364C139.72 73.6364 136.068 72.6894 132.841 70.7955C129.629 68.8864 127.083 66.1515 125.205 62.5909C123.341 59.0152 122.409 54.7273 122.409 49.7273C122.409 44.7121 123.341 40.4242 125.205 36.8636C127.083 33.2879 129.629 30.553 132.841 28.6591C136.068 26.7651 139.72 25.8182 143.795 25.8182C147.871 25.8182 151.515 26.7651 154.727 28.6591C157.955 30.553 160.5 33.2879 162.364 36.8636C164.242 40.4242 165.182 44.7121 165.182 49.7273ZM156.705 49.7273C156.705 46.197 156.152 43.2197 155.045 40.7955C153.955 38.3561 152.439 36.5152 150.5 35.2727C148.561 34.0152 146.326 33.3864 143.795 33.3864C141.265 33.3864 139.03 34.0152 137.091 35.2727C135.152 36.5152 133.629 38.3561 132.523 40.7955C131.432 43.2197 130.886 46.197 130.886 49.7273C130.886 53.2576 131.432 56.2424 132.523 58.6818C133.629 61.1061 135.152 62.947 137.091 64.2045C139.03 65.447 141.265 66.0682 143.795 66.0682C146.326 66.0682 148.561 65.447 150.5 64.2045C152.439 62.947 153.955 61.1061 155.045 58.6818C156.152 56.2424 156.705 53.2576 156.705 49.7273ZM181.017 52.5455V73H172.79V38.0909H180.653V44.0227H181.062C181.866 42.0682 183.146 40.5152 184.903 39.3636C186.676 38.2121 188.866 37.6364 191.472 37.6364C193.881 37.6364 195.979 38.1515 197.767 39.1818C199.57 40.2121 200.964 41.7045 201.949 43.6591C202.949 45.6136 203.441 47.9848 203.426 50.7727V73H195.199V52.0455C195.199 49.7121 194.593 47.8864 193.381 46.5682C192.184 45.25 190.525 44.5909 188.403 44.5909C186.964 44.5909 185.684 44.9091 184.562 45.5455C183.456 46.1667 182.585 47.0682 181.949 48.25C181.328 49.4318 181.017 50.8636 181.017 52.5455ZM268.148 43.3182H256.784C256.633 42.1515 256.322 41.0985 255.852 40.1591C255.383 39.2197 254.761 38.4167 253.989 37.75C253.216 37.0833 252.299 36.5758 251.239 36.2273C250.193 35.8636 249.034 35.6818 247.761 35.6818C245.504 35.6818 243.557 36.2348 241.92 37.3409C240.299 38.447 239.049 40.0455 238.17 42.1364C237.307 44.2273 236.875 46.7576 236.875 49.7273C236.875 52.8182 237.314 55.4091 238.193 57.5C239.087 59.5758 240.337 61.1439 241.943 62.2045C243.564 63.25 245.481 63.7727 247.693 63.7727C248.936 63.7727 250.064 63.6136 251.08 63.2955C252.11 62.9773 253.011 62.5152 253.784 61.9091C254.572 61.2879 255.216 60.5379 255.716 59.6591C256.231 58.7652 256.587 57.7576 256.784 56.6364L268.148 56.7045C267.951 58.7652 267.352 60.7955 266.352 62.7955C265.367 64.7955 264.011 66.6212 262.284 68.2727C260.557 69.9091 258.451 71.2121 255.966 72.1818C253.496 73.1515 250.663 73.6364 247.466 73.6364C243.254 73.6364 239.481 72.7121 236.148 70.8636C232.83 69 230.208 66.2879 228.284 62.7273C226.36 59.1667 225.398 54.8333 225.398 49.7273C225.398 44.6061 226.375 40.2652 228.33 36.7045C230.284 33.1439 232.928 30.4394 236.261 28.5909C239.595 26.7424 243.33 25.8182 247.466 25.8182C250.284 25.8182 252.89 26.2121 255.284 27C257.678 27.7727 259.784 28.9091 261.602 30.4091C263.42 31.8939 264.898 33.7197 266.034 35.8864C267.17 38.053 267.875 40.5303 268.148 43.3182ZM284.426 73.5909C282.199 73.5909 280.222 73.2197 278.494 72.4773C276.782 71.7197 275.426 70.5833 274.426 69.0682C273.441 67.5379 272.949 65.6212 272.949 63.3182C272.949 61.3788 273.29 59.7424 273.972 58.4091C274.653 57.0758 275.593 55.9924 276.79 55.1591C277.987 54.3258 279.366 53.697 280.926 53.2727C282.487 52.8333 284.153 52.5379 285.926 52.3864C287.911 52.2045 289.509 52.0152 290.722 51.8182C291.934 51.6061 292.813 51.3106 293.358 50.9318C293.919 50.5379 294.199 49.9848 294.199 49.2727V49.1591C294.199 47.9924 293.797 47.0909 292.994 46.4545C292.191 45.8182 291.108 45.5 289.744 45.5C288.275 45.5 287.093 45.8182 286.199 46.4545C285.305 47.0909 284.737 47.9697 284.494 49.0909L274.244 48.7273C274.547 46.6061 275.328 44.7121 276.585 43.0455C277.858 41.3636 279.6 40.0455 281.812 39.0909C284.04 38.1212 286.714 37.6364 289.835 37.6364C292.063 37.6364 294.116 37.9015 295.994 38.4318C297.873 38.947 299.509 39.7045 300.903 40.7045C302.297 41.6894 303.373 42.9015 304.131 44.3409C304.903 45.7803 305.29 47.4242 305.29 49.2727V73H294.835V68.1364H294.562C293.941 69.3182 293.146 70.3182 292.176 71.1364C291.222 71.9545 290.093 72.5682 288.79 72.9773C287.502 73.3864 286.047 73.5909 284.426 73.5909ZM287.858 66.3182C289.055 66.3182 290.131 66.0758 291.085 65.5909C292.055 65.1061 292.828 64.4394 293.403 63.5909C293.979 62.7273 294.267 61.7273 294.267 60.5909V57.2727C293.949 57.4394 293.563 57.5909 293.108 57.7273C292.669 57.8636 292.184 57.9924 291.653 58.1136C291.123 58.2348 290.578 58.3409 290.017 58.4318C289.456 58.5227 288.919 58.6061 288.403 58.6818C287.358 58.8485 286.464 59.1061 285.722 59.4545C284.994 59.803 284.434 60.2576 284.04 60.8182C283.661 61.3636 283.472 62.0152 283.472 62.7727C283.472 63.9242 283.881 64.803 284.699 65.4091C285.532 66.0152 286.585 66.3182 287.858 66.3182ZM323.199 26.4545V73H312.085V26.4545H323.199ZM346.591 73.6591C342.939 73.6591 339.788 72.9394 337.136 71.5C334.5 70.0455 332.47 67.9773 331.045 65.2955C329.636 62.5985 328.932 59.3939 328.932 55.6818C328.932 52.0758 329.644 48.9242 331.068 46.2273C332.492 43.5152 334.5 41.4091 337.091 39.9091C339.682 38.3939 342.735 37.6364 346.25 37.6364C348.735 37.6364 351.008 38.0227 353.068 38.7955C355.129 39.5682 356.909 40.7121 358.409 42.2273C359.909 43.7424 361.076 45.6136 361.909 47.8409C362.742 50.053 363.159 52.5909 363.159 55.4545V58.2273H332.818V51.7727H352.818C352.803 50.5909 352.523 49.5379 351.977 48.6136C351.432 47.6894 350.682 46.9697 349.727 46.4545C348.788 45.9242 347.705 45.6591 346.477 45.6591C345.235 45.6591 344.121 45.9394 343.136 46.5C342.152 47.0455 341.371 47.7955 340.795 48.75C340.22 49.6894 339.917 50.7576 339.886 51.9545V58.5227C339.886 59.947 340.167 61.197 340.727 62.2727C341.288 63.3333 342.083 64.1591 343.114 64.75C344.144 65.3409 345.371 65.6364 346.795 65.6364C347.78 65.6364 348.674 65.5 349.477 65.2273C350.28 64.9545 350.97 64.553 351.545 64.0227C352.121 63.4924 352.553 62.8409 352.841 62.0682L363.045 62.3636C362.621 64.6515 361.689 66.6439 360.25 68.3409C358.826 70.0227 356.955 71.3333 354.636 72.2727C352.318 73.197 349.636 73.6591 346.591 73.6591Z" fill="white"/>
<path d="M82.8742 86.9176C92.0965 78.195 97.8518 65.8442 97.8518 52.1483C97.8518 25.7205 76.4277 4.29651 50 4.29651C23.5723 4.29651 2.14825 25.7205 2.14825 52.1483C2.14825 78.576 23.5723 100 50 100C52.0709 100 54.1111 99.8682 56.1127 99.6131L82.8742 86.9176Z" fill="#4FABF7"/>
<path d="M77.507 71.399C77.0871 69.8559 76.9391 68.2514 77.0695 66.6574L77.851 59.2971C78.2324 54.6789 77.5287 50.052 75.4842 45.8936C70.202 35.1488 71.4139 34.3691 71.2496 23.7053C71.2496 21.5269 69.4836 19.7607 67.3051 19.7607C65.1266 19.7607 63.3606 21.5268 63.3606 23.7053C63.3606 67.0709 63.4412 63.8887 63.1738 65.1602V70.8387C63.1738 75.623 59.2815 79.5156 54.4971 79.5156H32.9049C36.2267 84.138 40.7704 87.7437 46.0266 89.9283L46.1244 89.9693C50.1934 91.6879 54.7365 95.1172 55.4957 99.3721L55.5692 99.676C66.2842 98.4338 75.919 93.6537 83.2762 86.532L77.507 71.399ZM18.2545 19.8986L17.0531 18.7855C15.201 17.0695 12.2816 17.1809 10.5656 19.0328C8.84962 20.885 8.96095 23.8043 10.8129 25.5203L18.2545 32.4154V19.8986Z" fill="#F9BA8F"/>
<path d="M13.2545 22.0698C12.1184 21.017 11.6404 19.5119 11.8344 18.0778C11.3587 18.3192 10.9292 18.6425 10.5656 19.0328C8.84962 20.885 8.96095 23.8043 10.8129 25.5203L18.2545 32.4155V26.7028L13.2545 22.0698Z" fill="#FCAD6D"/>
<path d="M77.8664 72.3414C76.2371 83.577 66.5672 92.2084 54.8801 92.2084C52.9094 92.2098 50.9465 91.9608 49.0385 91.4674C52.1328 93.3594 54.9164 96.1246 55.4957 99.3719L55.5692 99.6758C66.2842 98.4336 75.919 93.6535 83.2762 86.5319L77.8664 72.3414Z" fill="#FD995B"/>
<path d="M56.5655 79.7022H24.8789C21.1319 79.7022 18.0836 76.6537 18.0836 72.9066V6.79551C18.0836 3.04844 21.1319 0 24.8789 0H56.5655C60.3125 0 63.3608 3.04844 63.3608 6.79551V72.9068C63.3608 76.6537 60.3125 79.7022 56.5655 79.7022Z" fill="#2A428C"/>
<path d="M24.8789 0C21.1319 0 18.0836 3.04844 18.0836 6.79531V72.9066C18.0836 76.6537 21.1321 79.7022 24.8789 79.7022H34.325C32.2285 77.5635 34.6739 75.4742 34.6739 75.4742C31.2233 74.5689 31.5162 70.9426 31.5162 70.9426V12.0566C31.5162 8.58984 35.0377 7.71426 35.0377 7.71426C33.6506 6.32715 35.0377 4.86953 35.0377 4.86953V2.5209C33.7582 1.70996 34.0102 0.605859 34.2887 0H24.8789Z" fill="#142766"/>
<path d="M35.7162 4.8697H35.0377C34.7262 4.8697 34.4275 4.74597 34.2073 4.52572C33.987 4.30548 33.8633 4.00676 33.8633 3.69529C33.8633 3.38381 33.987 3.0851 34.2073 2.86485C34.4275 2.64461 34.7262 2.52087 35.0377 2.52087H35.7162C36.0277 2.52087 36.3264 2.64461 36.5466 2.86485C36.7669 3.0851 36.8906 3.38381 36.8906 3.69529C36.8906 4.00676 36.7669 4.30548 36.5466 4.52572C36.3264 4.74597 36.0277 4.8697 35.7162 4.8697ZM46.2443 4.8697H39.7244C39.4129 4.8697 39.1142 4.74597 38.894 4.52572C38.6737 4.30548 38.55 4.00676 38.55 3.69529C38.55 3.38381 38.6737 3.0851 38.894 2.86485C39.1142 2.64461 39.4129 2.52087 39.7244 2.52087H46.2443C46.5558 2.52087 46.8545 2.64461 47.0748 2.86485C47.295 3.0851 47.4187 3.38381 47.4187 3.69529C47.4187 4.00676 47.295 4.30548 47.0748 4.52572C46.8545 4.74597 46.5558 4.8697 46.2443 4.8697Z" fill="#3C58A0"/>
<path d="M56.5654 4.22772H51.8031C51.3768 4.22772 50.968 4.39708 50.6665 4.69853C50.3651 4.99998 50.1957 5.40883 50.1957 5.83514C50.1957 6.86854 49.3502 7.71425 48.3166 7.71425H33.1277C32.0943 7.71425 31.2486 6.86874 31.2486 5.83514C31.2486 5.40883 31.0793 4.99998 30.7778 4.69853C30.4764 4.39708 30.0675 4.22772 29.6412 4.22772H24.8789C23.4609 4.22772 22.3113 5.37733 22.3113 6.7953V72.9066C22.3113 74.3246 23.4609 75.4742 24.8789 75.4742H56.5654C57.9834 75.4742 59.133 74.3246 59.133 72.9066V6.7953C59.133 5.37733 57.9834 4.22772 56.5654 4.22772Z" fill="#E9EFFF"/>
<path d="M37.8608 75.4744V16.0902C32.2434 13.991 35.0369 7.71599 35.0375 7.71443H33.1277C32.0943 7.71443 31.2486 6.86892 31.2486 5.83533C31.2486 5.40901 31.0793 5.00016 30.7778 4.69871C30.4764 4.39726 30.0675 4.22791 29.6412 4.22791H24.8789C23.4609 4.22791 22.3113 5.37732 22.3113 6.79548V72.907C22.3113 74.325 23.4609 75.4746 24.8789 75.4746H37.8608V75.4744Z" fill="#BEC8F7"/>
<path d="M50.6266 33.2176C50.6502 34.5088 50.5227 35.8313 50.3846 36.7129C49.733 39.5846 48.7924 42.085 47.5891 44.1442C47.042 45.0797 46.3603 45.9297 45.5658 46.6668L45.4637 46.7615V47.4047C45.4637 48.0713 45.7229 48.6879 46.1639 49.2557C48.633 49.1065 50.732 48.6063 52.3867 48.0365C54.3783 47.3506 55.2502 44.9897 54.1621 43.186C51.5998 38.9389 51.9817 33.2174 51.9817 33.2174H50.6266V33.2176Z" fill="#2A428C"/>
<path d="M54.1621 43.1861C53.9235 42.7894 53.7078 42.3792 53.516 41.9578C50.534 43.6877 49.3422 41.2367 49.3422 41.2367C49.3422 41.2367 49.2653 41.1236 49.124 40.9137C48.6735 42.085 48.1614 43.165 47.5893 44.1443C47.0422 45.0799 46.3605 45.9298 45.566 46.667L45.4639 46.7617V47.4049C45.4639 48.0715 45.7231 48.6881 46.1641 49.2559C48.6332 49.1067 50.7323 48.6065 52.3869 48.0367C54.3783 47.3508 55.2502 44.9899 54.1621 43.1861ZM29.0631 48.0367C30.7176 48.6065 32.8168 49.1067 35.286 49.2559C35.7272 48.6881 35.9862 48.0715 35.9862 47.4049V46.6151L35.8885 46.5207C35.1601 45.8178 34.5315 45.0182 34.0205 44.1443C32.8166 42.0838 31.8762 39.5844 31.2256 36.7158C31.083 35.8842 30.9543 34.5399 30.9828 33.2176H29.4682C29.4682 33.2176 29.85 38.9391 27.2877 43.1861C26.1996 44.9899 27.0715 47.3508 29.0631 48.0367Z" fill="#1C2E7A"/>
<path d="M30.6307 52.3926C32.4178 55.451 35.1242 57.8297 38.4574 59.2719C39.1992 59.5914 39.9984 59.7562 40.8061 59.7562C41.6137 59.7562 42.4129 59.5914 43.1547 59.2719C46.4879 57.8297 49.1944 55.451 50.9815 52.3926C51.0496 52.276 51.1162 52.1568 51.1832 52.0381C48.3809 50.9576 45.7817 49.4203 45.7817 47.4113V46.4637C44.5559 47.5596 42.4535 48.9559 40.7223 48.9979C38.9908 48.9559 36.8887 47.5598 35.6629 46.4637C35.6629 47.7707 36.0098 49.3438 31.9018 51.3385C31.4276 51.5688 30.9209 51.7854 30.401 51.9885C30.477 52.1238 30.5531 52.2596 30.6307 52.3926Z" fill="#FCAD6D"/>
<path d="M41.0344 48.9754C40.9293 48.9871 40.8248 48.9951 40.7221 48.9974C38.9907 48.9554 36.8885 47.5594 35.6627 46.4633C35.6627 47.7701 36.0096 49.3435 31.9016 51.3379C31.4274 51.5681 30.9207 51.7847 30.4008 51.9879C30.477 52.1234 30.5532 52.2592 30.6307 52.3922C31.7897 54.3756 33.3371 56.0707 35.1893 57.4123C36.0411 56.942 37.0811 56.3556 38.3032 55.3965C40.5272 53.6515 41.0172 50.951 41.0344 48.9754Z" fill="#FD995B"/>
<path d="M24.8789 75.4744H56.5655C57.9834 75.4744 59.133 74.3248 59.133 72.9069V54.2658C58.7568 54.1415 58.373 54.0413 57.984 53.9658C57.6008 53.8625 53.961 53.1711 50.7555 51.869C50.6627 52.0358 50.569 52.2014 50.4737 52.3643C48.775 55.2713 46.2026 57.5323 43.0344 58.903C42.3293 59.2066 41.5697 59.3632 40.802 59.3632C40.0343 59.3632 39.2747 59.2066 38.5696 58.903C35.4014 57.5323 32.8289 55.2713 31.1303 52.3643C31.025 52.184 30.9218 52.0026 30.8207 51.8199C27.535 53.1744 23.4776 53.9614 23.4604 53.9658C23.0713 54.0414 22.6875 54.1416 22.3112 54.2658V72.9069C22.3114 74.3248 23.461 75.4744 24.8789 75.4744Z" fill="#EA349C"/>
<path d="M34.6737 75.4744C32.4358 75.1172 32.3949 73.4145 32.3949 73.4145V61.4028C32.3949 58.7375 33.4824 58.3731 35.5608 57.2057C33.7569 55.9198 32.252 54.284 31.1303 52.3643C31.025 52.184 30.9218 52.0026 30.8207 51.8199C27.535 53.1744 23.4776 53.9615 23.4604 53.9658C23.0713 54.0414 22.6875 54.1416 22.3112 54.2658V72.9069C22.3112 74.325 23.4608 75.4746 24.8787 75.4746H34.6737V75.4744Z" fill="#E21A96"/>
<path d="M52.8924 60.498H28.5519C26.4728 60.498 24.7717 62.1992 24.7717 64.2783C24.7717 66.3576 26.4728 68.0586 28.5519 68.0586H52.8924C54.9717 68.0586 56.6726 66.3574 56.6726 64.2783C56.6726 62.1992 54.9715 60.498 52.8924 60.498Z" fill="#F964B2"/>
<path d="M40.8023 70.6949C44.346 70.6949 47.2187 67.8222 47.2187 64.2785C47.2187 60.7348 44.346 57.8621 40.8023 57.8621C37.2586 57.8621 34.3859 60.7348 34.3859 64.2785C34.3859 67.8222 37.2586 70.6949 40.8023 70.6949Z" fill="#E9EFFF"/>
<path d="M30.0064 66.2711C31.1069 66.2711 31.999 65.379 31.999 64.2785C31.999 63.1781 31.1069 62.2859 30.0064 62.2859C28.906 62.2859 28.0139 63.1781 28.0139 64.2785C28.0139 65.379 28.906 66.2711 30.0064 66.2711Z" fill="#FC90CE"/>
<path d="M51.598 66.2711C52.6985 66.2711 53.5906 65.379 53.5906 64.2785C53.5906 63.1781 52.6985 62.2859 51.598 62.2859C50.4976 62.2859 49.6055 63.1781 49.6055 64.2785C49.6055 65.379 50.4976 66.2711 51.598 66.2711Z" fill="#FC90CE"/>
<path d="M24.9353 44.1097C23.4254 45.7392 20.8805 45.8363 19.251 44.3264L12.5133 38.0834C10.8838 36.5736 10.7867 34.0285 12.2967 32.399C13.8064 30.7695 16.3515 30.6724 17.981 32.1824L24.7187 38.4254C26.3482 39.9353 26.4451 42.4803 24.9353 44.1097Z" fill="#F9BA8F"/>
<path d="M22.0228 41.4887L15.2851 35.2457C14.1582 34.2016 13.7654 32.6625 14.1289 31.2734C13.4268 31.4743 12.7931 31.8637 12.2967 32.3992C10.7867 34.0287 10.8838 36.5738 12.5133 38.0836L19.251 44.3266C20.8805 45.8363 23.4254 45.7395 24.9353 44.11C25.385 43.6256 25.7078 43.0374 25.8748 42.3979C24.5648 42.7758 23.0959 42.483 22.0228 41.4887Z" fill="#FCAD6D"/>
<path d="M24.9353 66.0529C23.4254 67.6824 20.8805 67.7795 19.251 66.2695L12.5133 60.0266C10.8838 58.5168 10.7867 55.9717 12.2967 54.3422C13.8064 52.7127 16.3515 52.6156 17.981 54.1256L24.7187 60.3686C26.3482 61.8783 26.4451 64.4234 24.9353 66.0529Z" fill="#F9BA8F"/>
<path d="M22.0228 63.4317L15.2851 57.1889C14.1582 56.1447 13.7654 54.6057 14.1289 53.2166C13.4268 53.4175 12.7931 53.8068 12.2967 54.3424C10.7867 55.9719 10.8838 58.517 12.5133 60.0268L19.251 66.2695C20.8805 67.7793 23.4254 67.6824 24.9353 66.0529C25.385 65.5686 25.7078 64.9803 25.8748 64.3408C24.5648 64.719 23.0959 64.426 22.0228 63.4317Z" fill="#FCAD6D"/>
<path d="M24.9353 55.0814C23.4254 56.7109 20.8805 56.808 19.251 55.298L12.5133 49.0551C10.8838 47.5453 10.7867 45.0002 12.2967 43.3707C13.8064 41.7412 16.3515 41.6441 17.981 43.1541L24.7187 49.3971C26.3482 50.9068 26.4451 53.4517 24.9353 55.0814Z" fill="#F9BA8F"/>
<path d="M22.0228 52.4602L15.2851 46.2174C14.1582 45.1732 13.7654 43.6342 14.1289 42.2451C13.4268 42.4459 12.7931 42.8353 12.2967 43.3709C10.7867 45.0004 10.8838 47.5453 12.5133 49.0553L19.251 55.2982C20.8805 56.8082 23.4254 56.7111 24.9353 55.0816C25.385 54.5973 25.7078 54.009 25.8748 53.3695C24.5648 53.7475 23.0959 53.4545 22.0228 52.4602Z" fill="#FCAD6D"/>
<path d="M82.4352 16.9701C79.8377 20.274 77.4936 25.0209 79.3676 30.201C82.8832 39.9183 88.4822 48.1677 85.8779 62.5326C84.6963 69.0506 88.5738 71.7828 93.1623 72.823C96.166 66.5648 97.8516 59.5539 97.8516 52.1482C97.8518 38.2365 91.9133 25.7136 82.4352 16.9701Z" fill="#73C3F9"/>
<path d="M46.5904 16.7293C45.0553 15.9373 43.1465 15.3877 40.8049 15.3877C38.4635 15.3877 36.5545 15.9373 35.0193 16.7293C31.6588 18.4631 29.5879 21.9057 29.5879 25.6203V30.2027L29.5881 30.2043C30.1182 30.1918 30.7045 30.3654 31.0822 30.6174C31.2215 30.1619 31.4119 29.7676 31.6695 29.4773C31.9014 29.2162 32.0467 28.893 32.057 28.5473C32.0965 27.2244 32.4436 24.0982 34.7732 22.9016C35.4223 22.5682 36.2152 22.8225 36.5797 23.4545C37.9828 25.8873 41.2561 29.0934 48.5352 27.727C49.0514 27.6301 49.5365 28.0139 49.5525 28.5391L49.5527 28.5473C49.5631 28.893 49.7086 29.2162 49.9402 29.4773C50.1977 29.7676 50.3883 30.1619 50.5273 30.6174C50.9051 30.3656 51.4914 30.192 52.0215 30.2043L52.0217 30.2027V25.6203C52.0217 21.9057 49.951 18.4631 46.5904 16.7293Z" fill="#2A428C"/>
<path d="M40.6648 26.91C37.0572 20.0178 43.8353 15.7236 43.8353 15.7236C42.917 15.5111 41.9098 15.3877 40.8049 15.3877C38.4633 15.3877 36.5545 15.9373 35.0193 16.7293C31.6588 18.4631 29.5879 21.9057 29.5879 25.6203V30.2027L29.5881 30.2043C30.1182 30.1918 30.7045 30.3656 31.0822 30.6174C31.2215 30.1619 31.4119 29.7676 31.6695 29.4773C31.9014 29.2162 32.0469 28.893 32.057 28.5473C32.0965 27.2244 32.4436 24.0982 34.773 22.9016C35.4221 22.5682 36.215 22.8225 36.5795 23.4545C37.3381 24.7697 38.6451 26.3096 40.8342 27.232C40.7773 27.1246 40.7209 27.0172 40.6648 26.91Z" fill="#1C2E7A"/>
<path d="M30.9899 36.7608C30.9899 36.7608 30.3815 32.9104 31.0823 30.6174C30.4465 30.1936 29.218 29.9867 28.6657 30.5268C27.5346 31.6326 28.3633 33.3026 28.76 34.3573C28.8796 34.6726 28.9588 35.0018 28.9959 35.3369C29.0731 36.05 29.4598 37.0938 31.0629 37.0692C31.0383 36.9662 31.0135 36.8651 30.9899 36.7608Z" fill="#FD995B"/>
<path d="M52.9441 30.5265C52.3916 29.9865 51.1633 30.1933 50.5275 30.6172C51.2283 32.9101 50.6199 36.7605 50.6199 36.7605C50.5963 36.865 50.5715 36.966 50.5473 37.0689C52.1504 37.0935 52.5371 36.0498 52.6142 35.3367C52.6498 35.0086 52.7283 34.6808 52.8502 34.357C53.2465 33.3023 54.0752 31.6324 52.9441 30.5265Z" fill="#FCAD6D"/>
<path d="M49.6326 28.5449C49.6264 28.345 49.6146 28.1452 49.5973 27.9459C49.5378 27.8594 49.4663 27.7819 49.3848 27.7158C49.2607 27.6162 49.1166 27.5445 48.9622 27.5058C48.8079 27.4671 48.647 27.4623 48.4906 27.4916C41.5498 28.7942 38.2957 25.95 36.7869 23.3348C36.6575 23.1084 36.4757 22.9165 36.2567 22.7751C36.0376 22.6337 35.7878 22.547 35.5283 22.5223C35.1093 22.6365 34.7113 22.817 34.3492 23.0568C32.3154 24.4111 32.0127 27.3459 31.9769 28.5449C31.9676 28.86 31.8406 29.1641 31.6094 29.4244C30.3357 30.8596 30.6146 35.0522 30.9119 36.7783C31.5699 39.6826 32.523 42.2152 33.7445 44.3057C34.9846 46.4277 36.8625 48.0783 39.175 49.0789C39.6897 49.3006 40.2442 49.415 40.8047 49.415C41.3651 49.415 41.9196 49.3006 42.4344 49.0789C44.7471 48.0783 46.625 46.4279 47.865 44.3057C49.0863 42.2158 50.0394 39.6832 50.6988 36.7733C50.9842 34.9588 51.2881 30.876 50.0002 29.4244C49.7691 29.1641 49.642 28.8598 49.6326 28.5449Z" fill="#F9BA8F"/>
<path d="M42.2566 44.3055C41.0351 42.2151 40.082 39.6826 39.424 36.7781C39.1267 35.052 38.848 30.8592 40.1215 29.4242C40.3527 29.1639 40.4797 28.8598 40.489 28.5448C40.5008 28.1492 40.5422 27.5643 40.6646 26.91C38.7594 26.0362 37.5496 24.6567 36.7869 23.3346C36.6575 23.1083 36.4757 22.9163 36.2567 22.7749C36.0376 22.6335 35.7878 22.5468 35.5283 22.5221C35.1093 22.6364 34.7113 22.8168 34.3492 23.0567C32.3154 24.411 32.0127 27.3457 31.9769 28.5448C31.9676 28.8598 31.8404 29.1639 31.6094 29.4242C30.3357 30.8594 30.6146 35.052 30.9119 36.7781C31.5699 39.6824 32.523 42.2151 33.7445 44.3055C34.9846 46.4276 36.8625 48.0781 39.175 49.0787C39.6897 49.3004 40.2442 49.4148 40.8047 49.4148C41.3651 49.4148 41.9196 49.3004 42.4344 49.0787C43.3733 48.6736 44.256 48.149 45.0607 47.518C43.9317 46.6337 42.9803 45.5437 42.2566 44.3055Z" fill="#FCAD6D"/>
<path d="M43.8474 69.9274C40.6195 69.2723 41.3396 66.0152 41.3396 66.0152C41.3396 66.0152 41.7863 63.1281 39.6709 61.7176C38.0148 60.6135 38.5279 58.8756 38.8289 58.1727C36.251 59.0053 34.3859 61.4236 34.3859 64.2785C34.3859 67.8223 37.2586 70.6951 40.8023 70.6951C41.8654 70.6965 42.9121 70.4326 43.8474 69.9274Z" fill="#BEC8F7"/>
<path d="M43.3387 63.6623L40.0311 61.8082C39.5604 61.5443 38.9795 61.8845 38.9795 62.4242V66.1322C38.9795 66.6718 39.5604 67.0121 40.0311 66.7482L43.3387 64.8941C43.8199 64.6248 43.8199 63.932 43.3387 63.6623Z" fill="#EA349C"/>
<path d="M42.636 63.267L41.1838 62.4529C41.1366 62.4265 41.0833 62.4129 41.0293 62.4134C40.9752 62.4139 40.9222 62.4286 40.8755 62.4559C40.8288 62.4833 40.7901 62.5224 40.7632 62.5693C40.7363 62.6162 40.7221 62.6694 40.7221 62.7235V64.3514C40.7221 64.4055 40.7363 64.4586 40.7632 64.5056C40.7901 64.5525 40.8288 64.5916 40.8755 64.6189C40.9222 64.6462 40.9752 64.6609 41.0293 64.6614C41.0833 64.662 41.1366 64.6483 41.1838 64.6219L42.636 63.8078C42.684 63.7809 42.724 63.7417 42.7519 63.6941C42.7797 63.6466 42.7944 63.5925 42.7944 63.5374C42.7944 63.4823 42.7797 63.4282 42.7519 63.3807C42.724 63.3332 42.684 63.2939 42.636 63.267Z" fill="#F964B2"/>
</svg>
