<svg width="475" height="100" viewBox="0 0 475 100" fill="none" xmlns="http://www.w3.org/2000/svg">
<path d="M92.1875 45.3125H7.8125C6.08661 45.3125 4.6875 46.7116 4.6875 48.4375V92.1875C4.6875 93.9134 6.08661 95.3125 7.8125 95.3125H92.1875C93.9134 95.3125 95.3125 93.9134 95.3125 92.1875V48.4375C95.3125 46.7116 93.9134 45.3125 92.1875 45.3125Z" fill="#46F8FF"/>
<path d="M48.4375 10.9375H92.1875V26.5625C92.1875 29.4352 91.6217 32.2797 90.5224 34.9337C89.423 37.5877 87.8117 39.9992 85.7805 42.0305C83.7492 44.0617 81.3377 45.673 78.6837 46.7724C76.0297 47.8717 73.1852 48.4375 70.3125 48.4375C64.5109 48.4375 58.9469 46.1328 54.8445 42.0305C50.7422 37.9281 48.4375 32.3641 48.4375 26.5625V10.9375Z" fill="#C6C5CA"/>
<path d="M92.1875 10.9375V26.5625C92.1875 29.4352 91.6217 32.2797 90.5224 34.9337C89.423 37.5877 87.8117 39.9992 85.7805 42.0305C83.7492 44.0618 81.3377 45.6731 78.6837 46.7724C76.0297 47.8717 73.1852 48.4375 70.3125 48.4375C69.2671 48.4363 68.2229 48.3632 67.1875 48.2188C72.3932 47.4638 77.153 44.8597 80.5961 40.8829C84.0392 36.9062 85.9353 31.8227 85.9375 26.5625V10.9375H92.1875ZM94.3906 5.60939C94.6844 5.89587 94.9174 6.2386 95.0758 6.61712C95.2342 6.99564 95.3147 7.4022 95.3125 7.81251C95.31 8.64055 94.98 9.43397 94.3945 10.0195C93.809 10.605 93.0155 10.935 92.1875 10.9375H48.4375C47.6106 10.9314 46.8193 10.6002 46.2346 10.0154C45.6498 9.43072 45.3186 8.63942 45.3125 7.81251C45.315 6.98447 45.645 6.19105 46.2305 5.60554C46.816 5.02002 47.6095 4.68999 48.4375 4.68751H92.1875C92.5978 4.68533 93.0044 4.76583 93.3829 4.92422C93.7614 5.08261 94.1041 5.31563 94.3906 5.60939Z" fill="#ACABB1"/>
<path d="M95.3125 7.8125C95.31 8.64054 94.98 9.43396 94.3945 10.0195C93.809 10.605 93.0155 10.935 92.1875 10.9375H85.9375C86.7655 10.935 87.559 10.605 88.1445 10.0195C88.73 9.43396 89.06 8.64054 89.0625 7.8125C89.0564 6.98559 88.7252 6.1943 88.1404 5.60957C87.5557 5.02484 86.7644 4.69363 85.9375 4.6875H92.1875C93.0144 4.69363 93.8057 5.02484 94.3904 5.60957C94.9752 6.1943 95.3064 6.98559 95.3125 7.8125Z" fill="#898890"/>
<path d="M89.0625 60.9375V70.3125C89.0649 71.7168 88.7823 73.107 88.2317 74.3988C87.6811 75.6907 86.8741 76.8573 85.8594 77.8281L75 89.0625L71.9844 85.9375L64.1406 77.8281C62.4882 76.236 61.4064 74.1438 61.0625 71.875C60.9731 71.3591 60.9313 70.8361 60.9375 70.3125V60.9375L75 54.6875L89.0625 60.9375Z" fill="#FFCD00"/>
<path d="M89.0625 60.9375V70.3125C89.0649 71.7168 88.7823 73.107 88.2317 74.3988C87.6811 75.6907 86.8741 76.8573 85.8594 77.8281L75 89.0625L71.9844 85.9375L71.875 85.8281L79.6094 77.8281C80.6241 76.8573 81.4311 75.6907 81.9817 74.3988C82.5323 73.107 82.8149 71.7168 82.8125 70.3125V60.9375L71.875 56.0781L75 54.6875L89.0625 60.9375Z" fill="#DDB200"/>
<path d="M85.9375 32.8125C85.9365 36.7962 84.4139 40.6291 81.6809 43.5276C78.948 46.4261 75.2112 48.1712 71.2344 48.4063C70.9375 48.4219 70.625 48.4375 70.3125 48.4375C70 48.4375 69.6875 48.4219 69.3906 48.4063C66.3447 48.2262 63.4181 47.1583 60.9721 45.3344C58.5261 43.5104 56.6676 41.0101 55.626 38.1422C54.5845 35.2742 54.4054 32.164 55.111 29.1955C55.8165 26.227 57.3758 23.5299 59.5963 21.4373C61.8169 19.3446 64.6015 17.9479 67.6067 17.4196C70.6118 16.8912 73.7059 17.2542 76.5071 18.4639C79.3083 19.6736 81.694 21.6769 83.3699 24.2267C85.0457 26.7766 85.9383 29.7613 85.9375 32.8125Z" fill="#C6C5CA"/>
<path d="M85.9375 32.8125C85.9365 36.7962 84.4139 40.6291 81.6809 43.5276C78.948 46.4261 75.2112 48.1712 71.2344 48.4063C70.9375 48.4219 70.625 48.4375 70.3125 48.4375C70 48.4375 69.6875 48.4219 69.3906 48.4063C68.6509 48.3607 67.9149 48.2667 67.1875 48.125C70.72 47.4096 73.8966 45.4949 76.179 42.7054C78.4613 39.9159 79.7091 36.4231 79.711 32.8189C79.7128 29.2147 78.4686 25.7206 76.189 22.9288C73.9095 20.137 70.7349 18.219 67.2031 17.5C69.4724 17.0392 71.8158 17.0885 74.0637 17.6445C76.3116 18.2004 78.4079 19.249 80.2008 20.7145C81.9937 22.1799 83.4385 24.0256 84.4307 26.1179C85.4228 28.2102 85.9375 30.4969 85.9375 32.8125Z" fill="#ACABB1"/>
<path d="M70.3125 42.1875C75.4902 42.1875 79.6875 37.9902 79.6875 32.8125C79.6875 27.6348 75.4902 23.4375 70.3125 23.4375C65.1348 23.4375 60.9375 27.6348 60.9375 32.8125C60.9375 37.9902 65.1348 42.1875 70.3125 42.1875Z" fill="#FF3051"/>
<path d="M79.6875 32.8125C79.6875 35.2989 78.6998 37.6835 76.9416 39.4416C75.1835 41.1998 72.7989 42.1875 70.3125 42.1875C69.2468 42.1904 68.1889 42.0052 67.1875 41.6406C69.0151 40.9971 70.5979 39.8023 71.7175 38.2211C72.8372 36.6398 73.4385 34.75 73.4385 32.8125C73.4385 30.875 72.8372 28.9852 71.7175 27.4039C70.5979 25.8227 69.0151 24.6279 67.1875 23.9844C68.1889 23.6198 69.2468 23.4346 70.3125 23.4375C72.7989 23.4375 75.1835 24.4252 76.9416 26.1834C78.6998 27.9415 79.6875 30.3261 79.6875 32.8125Z" fill="#CD2A00"/>
<path d="M75 54.6875L60.9375 60.9375V70.3125C60.9313 70.8361 60.9731 71.3591 61.0625 71.875H50V54.6875H75Z" fill="#C6C5CA"/>
<path d="M70.3125 35.9375C72.0384 35.9375 73.4375 34.5384 73.4375 32.8125C73.4375 31.0866 72.0384 29.6875 70.3125 29.6875C68.5866 29.6875 67.1875 31.0866 67.1875 32.8125C67.1875 34.5384 68.5866 35.9375 70.3125 35.9375Z" fill="#BDFDFF"/>
<path d="M71.9844 85.9375H50V71.875H61.0625C61.4064 74.1438 62.4882 76.236 64.1406 77.8281L71.9844 85.9375ZM20.3125 71.875H50V85.9375H20.3125V71.875ZM20.3125 54.6875H50V71.875H20.3125V54.6875Z" fill="#C6C5CA"/>
<path d="M32.8125 35.9375C34.5384 35.9375 35.9375 34.5384 35.9375 32.8125C35.9375 31.0866 34.5384 29.6875 32.8125 29.6875C31.0866 29.6875 29.6875 31.0866 29.6875 32.8125C29.6875 34.5384 31.0866 35.9375 32.8125 35.9375Z" fill="#FF3051"/>
<path d="M10.9375 57.125V83.5C10.94 84.1964 10.7089 84.8735 10.2812 85.423C9.85347 85.9725 9.25381 86.3628 8.57812 86.5313L4.6875 87.5V53.125L8.57812 54.0937C9.25381 54.2622 9.85347 54.6525 10.2812 55.202C10.7089 55.7515 10.94 56.4286 10.9375 57.125Z" fill="#FF7956"/>
<path d="M95.3125 48.4375V92.1875C95.31 93.0155 94.98 93.809 94.3945 94.3945C93.809 94.98 93.0155 95.31 92.1875 95.3125H85.9375C86.7655 95.31 87.559 94.98 88.1445 94.3945C88.73 93.809 89.06 93.0155 89.0625 92.1875V48.4375C89.06 47.6095 88.73 46.816 88.1445 46.2305C87.559 45.645 86.7655 45.315 85.9375 45.3125H92.1875C93.0155 45.315 93.809 45.645 94.3945 46.2305C94.98 46.816 95.31 47.6095 95.3125 48.4375Z" fill="#00B6BD"/>
<path d="M35.9375 32.8125C35.9369 33.3608 35.7921 33.8993 35.5176 34.3739C35.2431 34.8485 34.8486 35.2425 34.3736 35.5164C33.8986 35.7903 33.36 35.9344 32.8117 35.9343C32.2634 35.9342 31.7248 35.7898 31.25 35.5156C31.7236 35.2409 32.1166 34.8466 32.3899 34.3722C32.6631 33.8978 32.807 33.36 32.807 32.8125C32.807 32.265 32.6631 31.7272 32.3899 31.2528C32.1166 30.7784 31.7236 30.3841 31.25 30.1094C31.7248 29.8352 32.2634 29.6908 32.8117 29.6907C33.36 29.6906 33.8986 29.8347 34.3736 30.1086C34.8486 30.3825 35.2431 30.7765 35.5176 31.2511C35.7921 31.7257 35.9369 32.2642 35.9375 32.8125Z" fill="#CD2A00"/>
<path d="M92.1875 43.75H86.1875C88.5704 41.5657 90.4731 38.9098 91.775 35.951C93.0769 32.9922 93.7494 29.7951 93.75 26.5625V12.2188C94.7834 11.8438 95.6521 11.1175 96.2043 10.167C96.7565 9.21642 96.9571 8.10202 96.7709 7.01858C96.5848 5.93514 96.0237 4.95159 95.1859 4.23987C94.3481 3.52815 93.2868 3.13353 92.1875 3.125H48.4375C47.3382 3.13353 46.2769 3.52815 45.4391 4.23987C44.6012 4.95159 44.0402 5.93514 43.8541 7.01858C43.6679 8.10202 43.8685 9.21642 44.4207 10.167C44.9729 11.1175 45.8416 11.8438 46.875 12.2188V26.5625C46.8756 29.7951 47.5481 32.9922 48.85 35.951C50.1519 38.9098 52.0546 41.5657 54.4375 43.75H7.8125C6.57044 43.7537 5.38031 44.2488 4.50203 45.127C3.62376 46.0053 3.12871 47.1954 3.125 48.4375V92.1875C3.12871 93.4296 3.62376 94.6197 4.50203 95.498C5.38031 96.3762 6.57044 96.8713 7.8125 96.875H92.1875C93.4296 96.8713 94.6197 96.3762 95.498 95.498C96.3762 94.6197 96.8713 93.4296 96.875 92.1875V48.4375C96.8713 47.1954 96.3762 46.0053 95.498 45.127C94.6197 44.2488 93.4296 43.7537 92.1875 43.75ZM46.875 7.8125C46.875 7.3981 47.0396 7.00067 47.3326 6.70765C47.6257 6.41462 48.0231 6.25 48.4375 6.25H92.1875C92.6019 6.25 92.9993 6.41462 93.2924 6.70765C93.5854 7.00067 93.75 7.3981 93.75 7.8125C93.75 8.2269 93.5854 8.62433 93.2924 8.91735C92.9993 9.21038 92.6019 9.375 92.1875 9.375H48.4375C48.0231 9.375 47.6257 9.21038 47.3326 8.91735C47.0396 8.62433 46.875 8.2269 46.875 7.8125ZM54.2969 39.0156C51.5087 35.4638 49.9954 31.0779 50 26.5625V12.5H90.625V26.5625C90.6296 31.0779 89.1163 35.4638 86.3281 39.0156C87.3427 36.4107 87.7066 33.5976 87.3882 30.8202C87.0697 28.0429 86.0787 25.3851 84.5009 23.0774C82.9231 20.7696 80.8063 18.8816 78.3338 17.5769C75.8614 16.2722 73.108 15.5903 70.3125 15.5903C67.517 15.5903 64.7636 16.2722 62.2912 17.5769C59.8187 18.8816 57.7019 20.7696 56.1241 23.0774C54.5463 25.3851 53.5553 28.0429 53.2368 30.8202C52.9184 33.5976 53.2823 36.4107 54.2969 39.0156ZM84.375 32.8125C84.375 35.5938 83.5502 38.3126 82.005 40.6252C80.4598 42.9378 78.2636 44.7402 75.694 45.8046C73.1244 46.8689 70.2969 47.1474 67.569 46.6048C64.8412 46.0622 62.3355 44.7229 60.3688 42.7562C58.4021 40.7895 57.0628 38.2838 56.5202 35.556C55.9776 32.8281 56.2561 30.0006 57.3204 27.431C58.3848 24.8614 60.1872 22.6652 62.4998 21.12C64.8124 19.5748 67.5312 18.75 70.3125 18.75C74.0403 18.7558 77.6138 20.2392 80.2498 22.8752C82.8858 25.5112 84.3692 29.0847 84.375 32.8125ZM6.25 55.125L8.1875 55.6094C8.52625 55.6931 8.82723 55.8879 9.04244 56.1625C9.25766 56.4372 9.37473 56.776 9.375 57.125V83.5C9.37473 83.849 9.25766 84.1878 9.04244 84.4625C8.82723 84.7371 8.52625 84.9319 8.1875 85.0156L6.25 85.5V55.125ZM93.75 92.1875C93.75 92.6019 93.5854 92.9993 93.2924 93.2924C92.9993 93.5854 92.6019 93.75 92.1875 93.75H7.8125C7.3981 93.75 7.00067 93.5854 6.70765 93.2924C6.41462 92.9993 6.25 92.6019 6.25 92.1875V88.7187L8.95313 88.0469C9.96649 87.7926 10.8659 87.2072 11.5085 86.3834C12.1511 85.5596 12.5001 84.5448 12.5 83.5V57.125C12.5001 56.0802 12.1511 55.0654 11.5085 54.2416C10.8659 53.4178 9.96649 52.8324 8.95313 52.5781L6.25 51.9063V48.4375C6.25 48.0231 6.41462 47.6257 6.70765 47.3326C7.00067 47.0396 7.3981 46.875 7.8125 46.875H58.6719C61.6985 48.6172 65.0794 49.6534 68.5625 49.9063C69.7258 50.0313 70.8992 50.0313 72.0625 49.9063C75.5456 49.6534 78.9265 48.6172 81.9531 46.875H92.1875C92.6019 46.875 92.9993 47.0396 93.2924 47.3326C93.5854 47.6257 93.75 48.0231 93.75 48.4375V92.1875ZM32.8125 6.25V3.125C24.9416 3.13369 17.3955 6.26426 11.8299 11.8299C6.26426 17.3955 3.13369 24.9416 3.125 32.8125H6.25C6.25786 25.7701 9.05892 19.0184 14.0387 14.0387C19.0184 9.05892 25.7701 6.25786 32.8125 6.25Z" fill="black"/>
<path d="M32.8125 9.375C26.5986 9.38203 20.6413 11.8536 16.2474 16.2474C11.8536 20.6413 9.38203 26.5986 9.375 32.8125H12.5C12.5062 27.4272 14.6483 22.2642 18.4562 18.4562C22.2642 14.6483 27.4272 12.5062 32.8125 12.5V9.375Z" fill="black"/>
<path d="M32.8125 18.75V15.625C28.2557 15.6304 23.8872 17.4429 20.665 20.665C17.4429 23.8872 15.6304 28.2557 15.625 32.8125H18.75C18.7541 29.0842 20.237 25.5097 22.8734 22.8734C25.5097 20.237 29.0842 18.7541 32.8125 18.75Z" fill="black"/>
<path d="M32.8125 25V21.875C29.9127 21.8783 27.1326 23.0317 25.0822 25.0822C23.0317 27.1326 21.8783 29.9127 21.875 32.8125H25C25.0025 30.7413 25.8264 28.7556 27.291 27.291C28.7556 25.8264 30.7413 25.0025 32.8125 25ZM28.125 32.8125C28.125 33.7396 28.3999 34.6459 28.915 35.4167C29.4301 36.1876 30.1621 36.7884 31.0187 37.1432C31.8752 37.498 32.8177 37.5908 33.727 37.4099C34.6363 37.2291 35.4715 36.7826 36.1271 36.1271C36.7826 35.4715 37.2291 34.6363 37.4099 33.727C37.5908 32.8177 37.498 31.8752 37.1432 31.0187C36.7884 30.1621 36.1876 29.4301 35.4167 28.915C34.6459 28.3999 33.7396 28.125 32.8125 28.125C31.5693 28.125 30.377 28.6189 29.4979 29.4979C28.6189 30.377 28.125 31.5693 28.125 32.8125ZM34.375 32.8125C34.375 33.1215 34.2834 33.4236 34.1117 33.6806C33.94 33.9375 33.696 34.1378 33.4104 34.2561C33.1249 34.3743 32.8108 34.4053 32.5077 34.345C32.2046 34.2847 31.9262 34.1359 31.7076 33.9174C31.4891 33.6988 31.3403 33.4204 31.28 33.1173C31.2197 32.8142 31.2507 32.5001 31.3689 32.2146C31.4872 31.929 31.6875 31.685 31.9444 31.5133C32.2014 31.3416 32.5035 31.25 32.8125 31.25C33.2269 31.25 33.6243 31.4146 33.9174 31.7076C34.2104 32.0007 34.375 32.3981 34.375 32.8125ZM70.3125 28.125C69.3854 28.125 68.4791 28.3999 67.7083 28.915C66.9374 29.4301 66.3366 30.1621 65.9818 31.0187C65.627 31.8752 65.5342 32.8177 65.7151 33.727C65.8959 34.6363 66.3424 35.4715 66.9979 36.1271C67.6535 36.7826 68.4887 37.2291 69.398 37.4099C70.3073 37.5908 71.2498 37.498 72.1063 37.1432C72.9629 36.7884 73.6949 36.1876 74.21 35.4167C74.7251 34.6459 75 33.7396 75 32.8125C75 31.5693 74.5061 30.377 73.6271 29.4979C72.748 28.6189 71.5557 28.125 70.3125 28.125ZM70.3125 34.375C70.0035 34.375 69.7014 34.2834 69.4444 34.1117C69.1875 33.94 68.9872 33.696 68.8689 33.4104C68.7507 33.1249 68.7197 32.8108 68.78 32.5077C68.8403 32.2046 68.9891 31.9262 69.2076 31.7076C69.4262 31.4891 69.7046 31.3403 70.0077 31.28C70.3108 31.2197 70.6249 31.2507 70.9104 31.3689C71.196 31.4872 71.44 31.6875 71.6117 31.9444C71.7834 32.2014 71.875 32.5035 71.875 32.8125C71.875 33.2269 71.7104 33.6243 71.4174 33.9174C71.1243 34.2104 70.7269 34.375 70.3125 34.375Z" fill="black"/>
<path d="M70.3125 21.875C68.1493 21.875 66.0346 22.5165 64.236 23.7183C62.4373 24.9201 61.0354 26.6283 60.2076 28.6269C59.3797 30.6255 59.1631 32.8246 59.5852 34.9463C60.0072 37.068 61.0489 39.0168 62.5785 40.5465C64.1082 42.0761 66.057 43.1178 68.1787 43.5398C70.3004 43.9619 72.4995 43.7453 74.4981 42.9174C76.4967 42.0896 78.2049 40.6877 79.4067 38.8891C80.6085 37.0904 81.25 34.9757 81.25 32.8125C81.2467 29.9127 80.0933 27.1326 78.0428 25.0822C75.9924 23.0317 73.2123 21.8783 70.3125 21.875ZM70.3125 40.625C68.7673 40.625 67.2569 40.1668 65.9721 39.3084C64.6874 38.4499 63.686 37.2298 63.0947 35.8022C62.5034 34.3747 62.3487 32.8038 62.6501 31.2884C62.9516 29.7729 63.6956 28.3808 64.7882 27.2882C65.8808 26.1956 67.2729 25.4516 68.7884 25.1501C70.3038 24.8487 71.8747 25.0034 73.3022 25.5947C74.7298 26.186 75.9499 27.1873 76.8084 28.4721C77.6668 29.7569 78.125 31.2673 78.125 32.8125C78.1225 34.8837 77.2986 36.8694 75.834 38.334C74.3694 39.7986 72.3837 40.6225 70.3125 40.625ZM71.6844 67.9141L69.475 70.1234L73.8953 74.5422C74.1883 74.8351 74.5857 74.9997 75 74.9997C75.4143 74.9997 75.8117 74.8351 76.1047 74.5422L84.9438 65.7031L82.7344 63.4938L75 71.2281L71.6844 67.9141Z" fill="black"/>
<path d="M89.7031 59.5156L75.6406 53.2656C75.4398 53.1729 75.2212 53.125 75 53.125H20.3125C19.8981 53.125 19.5007 53.2896 19.2076 53.5826C18.9146 53.8757 18.75 54.2731 18.75 54.6875V85.9375C18.75 86.3519 18.9146 86.7493 19.2076 87.0424C19.5007 87.3354 19.8981 87.5 20.3125 87.5H71.3125L73.875 90.1563C74.0223 90.3048 74.1975 90.4227 74.3906 90.5031C74.5837 90.5836 74.7908 90.625 75 90.625C75.2092 90.625 75.4163 90.5836 75.6094 90.5031C75.8025 90.4227 75.9777 90.3048 76.125 90.1563L86.9687 78.9219C88.1236 77.8047 89.0423 76.4671 89.6704 74.9881C90.2984 73.5092 90.6231 71.9192 90.625 70.3125V60.9375C90.6269 60.6364 90.5407 60.3413 90.3769 60.0886C90.213 59.8359 89.9788 59.6367 89.7031 59.5156ZM51.5625 56.25H67.6406L60.2969 59.5156C60.0212 59.6367 59.787 59.8359 59.6231 60.0886C59.4593 60.3413 59.3731 60.6364 59.375 60.9375V70.3125H51.5625V56.25ZM48.4375 84.375H21.875V73.4375H48.4375V84.375ZM48.4375 70.3125H21.875V56.25H48.4375V70.3125ZM51.5625 84.375V73.4375H59.7969C60.3791 75.516 61.494 77.4065 63.0313 78.9219L68.2969 84.375H51.5625ZM87.5 70.3125C87.5002 71.5148 87.255 72.7044 86.7794 73.8086C86.3039 74.9129 85.608 75.9084 84.7344 76.7344L75 86.8125L65.2656 76.7344L65.25 76.7187C64.3804 75.8938 63.688 74.9003 63.2152 73.7989C62.7424 72.6974 62.499 71.5111 62.5 70.3125V61.9531L75 56.3906L87.5 61.9531V70.3125Z" fill="black"/>
<path d="M152.193 50.2727C152.193 53.8774 151.518 56.9647 150.168 59.5348C148.828 62.094 146.999 64.0542 144.679 65.4155C142.37 66.7768 139.751 67.4574 136.822 67.4574C133.892 67.4574 131.268 66.7768 128.948 65.4155C126.639 64.0433 124.81 62.0777 123.46 59.5185C122.12 56.9484 121.45 53.8665 121.45 50.2727C121.45 46.6681 122.12 43.5862 123.46 41.027C124.81 38.4569 126.639 36.4912 128.948 35.13C131.268 33.7687 133.892 33.0881 136.822 33.0881C139.751 33.0881 142.37 33.7687 144.679 35.13C146.999 36.4912 148.828 38.4569 150.168 41.027C151.518 43.5862 152.193 46.6681 152.193 50.2727ZM146.1 50.2727C146.1 47.7353 145.703 45.5954 144.908 43.853C144.124 42.0997 143.035 40.7765 141.641 39.8835C140.247 38.9796 138.64 38.5277 136.822 38.5277C135.003 38.5277 133.397 38.9796 132.003 39.8835C130.609 40.7765 129.514 42.0997 128.719 43.853C127.935 45.5954 127.543 47.7353 127.543 50.2727C127.543 52.8101 127.935 54.9555 128.719 56.7088C129.514 58.4512 130.609 59.7744 132.003 60.6783C133.397 61.5713 135.003 62.0178 136.822 62.0178C138.64 62.0178 140.247 61.5713 141.641 60.6783C143.035 59.7744 144.124 58.4512 144.908 56.7088C145.703 54.9555 146.1 52.8101 146.1 50.2727ZM163.575 52.2983V67H157.661V41.9091H163.313V46.1726H163.607C164.185 44.7678 165.105 43.6515 166.368 42.8239C167.642 41.9962 169.216 41.5824 171.089 41.5824C172.82 41.5824 174.329 41.9527 175.614 42.6932C176.91 43.4337 177.912 44.5064 178.619 45.9112C179.338 47.3161 179.692 49.0204 179.681 51.0241V67H173.768V51.9389C173.768 50.2618 173.332 48.9496 172.461 48.0021C171.601 47.0547 170.408 46.581 168.884 46.581C167.849 46.581 166.929 46.8097 166.123 47.267C165.328 47.7135 164.702 48.3615 164.244 49.2109C163.798 50.0604 163.575 51.0895 163.575 52.2983ZM328.164 42.7422C328.012 41.3156 327.369 40.2048 326.237 39.4098C325.115 38.6148 323.656 38.2173 321.859 38.2173C320.596 38.2173 319.512 38.4079 318.608 38.7891C317.704 39.1702 317.013 39.6875 316.534 40.3409C316.055 40.9943 315.81 41.7403 315.799 42.5788C315.799 43.2758 315.957 43.8802 316.272 44.392C316.599 44.9039 317.04 45.3395 317.596 45.6989C318.151 46.0473 318.766 46.3414 319.441 46.581C320.117 46.8205 320.797 47.022 321.483 47.1854L324.62 47.9695C325.883 48.2635 327.097 48.661 328.262 49.1619C329.439 49.6629 330.489 50.2945 331.415 51.0568C332.352 51.8191 333.092 52.7393 333.637 53.8175C334.181 54.8956 334.453 56.1589 334.453 57.6072C334.453 59.5675 333.953 61.2936 332.951 62.7855C331.949 64.2666 330.5 65.4264 328.605 66.2649C326.721 67.0926 324.44 67.5064 321.761 67.5064C319.158 67.5064 316.899 67.1035 314.982 66.2976C313.076 65.4917 311.584 64.3156 310.506 62.7692C309.439 61.2228 308.862 59.3388 308.775 57.1172H314.737C314.824 58.2824 315.183 59.2517 315.815 60.0249C316.447 60.7981 317.269 61.3752 318.282 61.7564C319.305 62.1375 320.449 62.3281 321.712 62.3281C323.03 62.3281 324.184 62.1321 325.175 61.7401C326.177 61.3371 326.961 60.7817 327.527 60.0739C328.094 59.3551 328.382 58.5166 328.393 57.5582C328.382 56.687 328.126 55.9683 327.625 55.402C327.124 54.8248 326.422 54.3456 325.518 53.9645C324.625 53.5724 323.58 53.224 322.382 52.919L318.576 51.9389C315.82 51.2311 313.642 50.1584 312.042 48.7209C310.452 47.2725 309.657 45.3504 309.657 42.9545C309.657 40.9834 310.19 39.2573 311.257 37.7763C312.336 36.2952 313.8 35.1463 315.652 34.3295C317.503 33.5019 319.599 33.0881 321.941 33.0881C324.315 33.0881 326.395 33.5019 328.181 34.3295C329.978 35.1463 331.388 36.2843 332.412 37.7436C333.435 39.192 333.963 40.8582 333.996 42.7422H328.164ZM343.27 76.4091C342.465 76.4091 341.719 76.3438 341.032 76.2131C340.357 76.0933 339.818 75.9517 339.415 75.7884L340.787 71.1818C341.648 71.4323 342.416 71.5521 343.091 71.5412C343.766 71.5303 344.359 71.3179 344.871 70.9041C345.394 70.5012 345.835 69.826 346.194 68.8786L346.701 67.5227L337.602 41.9091H343.875L349.657 60.858H349.919L355.718 41.9091H362.007L351.961 70.0384C351.492 71.367 350.872 72.505 350.099 73.4524C349.325 74.4107 348.378 75.1404 347.256 75.6413C346.145 76.1532 344.817 76.4091 343.27 76.4091ZM385.93 48.5412L380.539 49.1293C380.387 48.5848 380.12 48.0729 379.739 47.5938C379.369 47.1146 378.868 46.728 378.236 46.4339C377.604 46.1399 376.831 45.9929 375.916 45.9929C374.686 45.9929 373.651 46.2597 372.813 46.7933C371.985 47.3269 371.577 48.0185 371.588 48.8679C371.577 49.5975 371.843 50.1911 372.388 50.6484C372.943 51.1058 373.858 51.4815 375.132 51.7756L379.412 52.6903C381.786 53.2022 383.55 54.0135 384.705 55.1243C385.87 56.2351 386.458 57.6889 386.469 59.4858C386.458 61.0649 385.995 62.4588 385.08 63.6676C384.177 64.8655 382.919 65.8021 381.307 66.4773C379.695 67.1525 377.844 67.4901 375.753 67.4901C372.682 67.4901 370.21 66.8475 368.337 65.5625C366.464 64.2666 365.347 62.4643 364.988 60.1555L370.754 59.6001C371.016 60.7327 371.571 61.5876 372.421 62.1648C373.27 62.742 374.375 63.0305 375.737 63.0305C377.142 63.0305 378.269 62.742 379.118 62.1648C379.978 61.5876 380.409 60.8743 380.409 60.0249C380.409 59.3061 380.131 58.7126 379.575 58.2443C379.031 57.776 378.182 57.4167 377.027 57.1662L372.747 56.2678C370.341 55.7668 368.56 54.9228 367.406 53.7358C366.251 52.5379 365.68 51.0241 365.691 49.1946C365.68 47.6482 366.099 46.3087 366.948 45.1761C367.809 44.0327 369.001 43.1506 370.526 42.5298C372.061 41.8982 373.831 41.5824 375.835 41.5824C378.775 41.5824 381.089 42.2086 382.777 43.4609C384.476 44.7133 385.527 46.4067 385.93 48.5412ZM403.874 41.9091V46.483H389.45V41.9091H403.874ZM393.011 35.8977H398.925V59.4531C398.925 60.2481 399.044 60.858 399.284 61.2827C399.534 61.6965 399.861 61.9796 400.264 62.1321C400.667 62.2846 401.113 62.3608 401.604 62.3608C401.974 62.3608 402.311 62.3336 402.616 62.2791C402.932 62.2247 403.172 62.1757 403.335 62.1321L404.331 66.755C404.016 66.8639 403.564 66.9837 402.976 67.1143C402.398 67.245 401.691 67.3213 400.852 67.343C399.371 67.3866 398.037 67.1634 396.85 66.6733C395.663 66.1723 394.721 65.3991 394.024 64.3537C393.338 63.3082 393 62.0014 393.011 60.4332V35.8977ZM419.658 67.4901C417.142 67.4901 414.97 66.9673 413.14 65.9219C411.322 64.8655 409.922 63.3736 408.942 61.446C407.962 59.5076 407.472 57.2261 407.472 54.6016C407.472 52.0206 407.962 49.7554 408.942 47.8061C409.933 45.8459 411.316 44.3213 413.091 43.2322C414.866 42.1323 416.952 41.5824 419.348 41.5824C420.894 41.5824 422.353 41.8329 423.725 42.3338C425.109 42.8239 426.328 43.5862 427.385 44.6207C428.452 45.6553 429.29 46.973 429.9 48.5739C430.51 50.1638 430.815 52.0587 430.815 54.2585V56.0717H410.249V52.0859H425.147C425.136 50.9534 424.891 49.946 424.412 49.0639C423.932 48.1709 423.263 47.4685 422.402 46.9567C421.553 46.4448 420.562 46.1889 419.429 46.1889C418.221 46.1889 417.159 46.483 416.244 47.071C415.329 47.6482 414.616 48.4105 414.104 49.358C413.603 50.2945 413.347 51.3236 413.336 52.4453V55.9247C413.336 57.384 413.603 58.6364 414.137 59.6818C414.67 60.7164 415.416 61.5114 416.375 62.0668C417.333 62.6113 418.455 62.8835 419.74 62.8835C420.6 62.8835 421.379 62.7637 422.076 62.5241C422.773 62.2737 423.377 61.9089 423.889 61.4297C424.401 60.9505 424.787 60.357 425.049 59.6491L430.57 60.2699C430.221 61.7292 429.557 63.0033 428.577 64.0923C427.608 65.1705 426.366 66.009 424.853 66.608C423.339 67.196 421.607 67.4901 419.658 67.4901ZM435.818 67V41.9091H441.47V46.1726H441.764C442.286 44.7351 443.152 43.6134 444.361 42.8075C445.57 41.9908 447.013 41.5824 448.69 41.5824C450.389 41.5824 451.821 41.9962 452.986 42.8239C454.162 43.6406 454.99 44.7569 455.469 46.1726H455.73C456.286 44.7786 457.222 43.6679 458.54 42.8402C459.869 42.0017 461.442 41.5824 463.261 41.5824C465.57 41.5824 467.454 42.312 468.913 43.7713C470.372 45.2306 471.102 47.3596 471.102 50.1584V67H465.172V51.0732C465.172 49.5159 464.758 48.3778 463.931 47.6591C463.103 46.9294 462.09 46.5646 460.892 46.5646C459.466 46.5646 458.349 47.0111 457.544 47.9041C456.749 48.7862 456.351 49.9351 456.351 51.3509V67H450.552V50.8281C450.552 49.5322 450.16 48.4976 449.376 47.7244C448.603 46.9512 447.59 46.5646 446.338 46.5646C445.488 46.5646 444.715 46.7824 444.018 47.218C443.321 47.6428 442.766 48.2472 442.352 49.0312C441.938 49.8045 441.731 50.7083 441.731 51.7429V67H435.818Z" fill="white"/>
<path d="M226.2 45.6662H218.032C217.923 44.8277 217.7 44.0708 217.363 43.3956C217.025 42.7204 216.578 42.1432 216.023 41.6641C215.468 41.1849 214.809 40.8201 214.047 40.5696C213.295 40.3082 212.462 40.1776 211.547 40.1776C209.925 40.1776 208.525 40.575 207.349 41.37C206.184 42.165 205.285 43.3139 204.654 44.8168C204.033 46.3196 203.723 48.1383 203.723 50.2727C203.723 52.4943 204.038 54.3565 204.67 55.8594C205.313 57.3513 206.211 58.4785 207.365 59.2408C208.531 59.9922 209.908 60.3679 211.498 60.3679C212.391 60.3679 213.203 60.2536 213.932 60.0249C214.673 59.7962 215.321 59.464 215.876 59.0284C216.442 58.5819 216.905 58.0428 217.265 57.4112C217.635 56.7687 217.891 56.0445 218.032 55.2386L226.2 55.2876C226.058 56.7687 225.628 58.228 224.909 59.6655C224.202 61.103 223.227 62.4152 221.985 63.6023C220.744 64.7784 219.23 65.715 217.444 66.4119C215.669 67.1089 213.633 67.4574 211.335 67.4574C208.307 67.4574 205.596 66.7931 203.2 65.4645C200.815 64.125 198.931 62.1757 197.548 59.6165C196.165 57.0573 195.473 53.9427 195.473 50.2727C195.473 46.5919 196.176 43.4718 197.581 40.9126C198.985 38.3535 200.886 36.4096 203.282 35.081C205.677 33.7524 208.362 33.0881 211.335 33.0881C213.36 33.0881 215.234 33.3712 216.954 33.9375C218.675 34.4929 220.189 35.3097 221.495 36.3878C222.802 37.455 223.864 38.7673 224.681 40.3246C225.498 41.8819 226.004 43.6624 226.2 45.6662ZM237.9 67.4247C236.299 67.4247 234.878 67.1579 233.637 66.6243C232.406 66.0798 231.431 65.263 230.713 64.174C230.005 63.0741 229.651 61.6965 229.651 60.0412C229.651 58.6473 229.896 57.4711 230.386 56.5128C230.876 55.5545 231.551 54.7758 232.411 54.1768C233.272 53.5779 234.263 53.1259 235.384 52.821C236.506 52.5052 237.704 52.2928 238.978 52.1839C240.405 52.0533 241.554 51.9171 242.425 51.7756C243.296 51.6231 243.928 51.4107 244.32 51.1385C244.723 50.8553 244.924 50.4579 244.924 49.946V49.8643C244.924 49.0258 244.636 48.3778 244.058 47.9205C243.481 47.4631 242.703 47.2344 241.722 47.2344C240.666 47.2344 239.817 47.4631 239.174 47.9205C238.532 48.3778 238.123 49.0095 237.949 49.8153L230.582 49.554C230.8 48.0294 231.36 46.6681 232.264 45.4702C233.179 44.2614 234.432 43.3139 236.021 42.6278C237.622 41.9309 239.544 41.5824 241.788 41.5824C243.389 41.5824 244.864 41.773 246.215 42.1541C247.565 42.5244 248.741 43.0689 249.743 43.7876C250.745 44.4955 251.518 45.3667 252.063 46.4013C252.618 47.4358 252.896 48.6174 252.896 49.946V67H245.382V63.5043H245.186C244.739 64.3537 244.167 65.0724 243.47 65.6605C242.784 66.2486 241.973 66.6896 241.036 66.9837C240.111 67.2777 239.065 67.4247 237.9 67.4247ZM240.367 62.1974C241.227 62.1974 242 62.0232 242.686 61.6747C243.383 61.3262 243.939 60.8471 244.352 60.2372C244.766 59.6165 244.973 58.8977 244.973 58.081V55.696C244.744 55.8158 244.467 55.9247 244.14 56.0227C243.824 56.1207 243.476 56.2133 243.095 56.3004C242.713 56.3875 242.321 56.4638 241.919 56.5291C241.516 56.5945 241.129 56.6544 240.759 56.7088C240.007 56.8286 239.365 57.0137 238.831 57.2642C238.308 57.5147 237.905 57.8414 237.622 58.2443C237.35 58.6364 237.214 59.1046 237.214 59.6491C237.214 60.4768 237.508 61.1084 238.096 61.544C238.695 61.9796 239.452 62.1974 240.367 62.1974ZM265.768 33.5455V67H257.78V33.5455H265.768ZM282.581 67.4737C279.956 67.4737 277.691 66.9564 275.786 65.9219C273.891 64.8764 272.431 63.3899 271.408 61.4624C270.395 59.5239 269.888 57.2206 269.888 54.5526C269.888 51.9607 270.4 49.6955 271.424 47.7571C272.448 45.8078 273.891 44.294 275.753 43.2159C277.615 42.1269 279.809 41.5824 282.336 41.5824C284.122 41.5824 285.755 41.8601 287.237 42.4155C288.718 42.9709 289.997 43.7931 291.075 44.8821C292.153 45.9711 292.992 47.3161 293.591 48.9169C294.19 50.5069 294.489 52.331 294.489 54.3892V56.3821H272.682V51.7429H287.057C287.046 50.8935 286.844 50.1366 286.452 49.4723C286.06 48.808 285.521 48.2907 284.835 47.9205C284.16 47.5393 283.381 47.3487 282.499 47.3487C281.606 47.3487 280.806 47.5502 280.098 47.9531C279.39 48.3452 278.829 48.8842 278.415 49.5703C278.002 50.2455 277.784 51.0133 277.762 51.8736V56.5945C277.762 57.6181 277.964 58.5166 278.366 59.2898C278.769 60.0521 279.341 60.6456 280.082 61.0703C280.822 61.495 281.704 61.7074 282.728 61.7074C283.436 61.7074 284.078 61.6094 284.656 61.4134C285.233 61.2173 285.728 60.9287 286.142 60.5476C286.556 60.1664 286.866 59.6982 287.073 59.1428L294.408 59.3551C294.103 60.9995 293.433 62.4316 292.398 63.6513C291.375 64.8601 290.03 65.8021 288.364 66.4773C286.697 67.1416 284.77 67.4737 282.581 67.4737Z" fill="#0638BE"/>
</svg>
